<svg width="165" height="45" viewBox="0 0 165 45" fill="none" xmlns="http://www.w3.org/2000/svg">
<path d="M33.75 22.5C33.75 28.7132 28.7132 33.75 22.5 33.75C16.2868 33.75 11.25 28.7132 11.25 22.5C11.25 16.2868 16.2868 11.25 22.5 11.25C28.7132 11.25 33.75 16.2868 33.75 22.5Z" fill="#FFC700"/>
<path d="M23.9062 7.03125C23.9062 7.8079 23.2767 8.4375 22.5 8.4375C21.7233 8.4375 21.0938 7.8079 21.0938 7.03125C21.0938 6.2546 21.7233 5.625 22.5 5.625C23.2767 5.625 23.9062 6.2546 23.9062 7.03125Z" fill="#FFC700"/>
<path d="M23.9062 37.9688C23.9062 38.7454 23.2767 39.375 22.5 39.375C21.7233 39.375 21.0938 38.7454 21.0938 37.9688C21.0938 37.1921 21.7233 36.5625 22.5 36.5625C23.2767 36.5625 23.9062 37.1921 23.9062 37.9688Z" fill="#FFC700"/>
<path d="M37.9688 23.9062C37.1921 23.9062 36.5625 23.2767 36.5625 22.5C36.5625 21.7233 37.1921 21.0938 37.9688 21.0938C38.7454 21.0938 39.375 21.7233 39.375 22.5C39.375 23.2767 38.7454 23.9062 37.9688 23.9062Z" fill="#FFC700"/>
<path d="M7.03125 23.9062C6.2546 23.9062 5.625 23.2767 5.625 22.5C5.625 21.7233 6.2546 21.0938 7.03125 21.0938C7.8079 21.0938 8.4375 21.7233 8.4375 22.5C8.4375 23.2767 7.8079 23.9062 7.03125 23.9062Z" fill="#FFC700"/>
<path d="M34.4324 12.5563C33.8832 13.1055 32.9929 13.1055 32.4437 12.5563C31.8945 12.0071 31.8945 11.1168 32.4437 10.5676C32.9929 10.0184 33.8832 10.0184 34.4324 10.5676C34.9816 11.1168 34.9816 12.0071 34.4324 12.5563Z" fill="#FFC700"/>
<path d="M12.5563 34.4324C12.0071 34.9816 11.1167 34.9816 10.5676 34.4324C10.0184 33.8833 10.0184 32.9929 10.5676 32.4437C11.1167 31.8945 12.0071 31.8945 12.5563 32.4437C13.1055 32.9929 13.1055 33.8833 12.5563 34.4324Z" fill="#FFC700"/>
<path d="M32.4437 34.4323C31.8945 33.8831 31.8945 32.9927 32.4437 32.4436C32.9929 31.8944 33.8832 31.8944 34.4324 32.4436C34.9816 32.9927 34.9816 33.8831 34.4324 34.4323C33.8832 34.9815 32.9929 34.9815 32.4437 34.4323Z" fill="#FFC700"/>
<path d="M10.5676 12.5562C10.0184 12.007 10.0184 11.1166 10.5676 10.5674C11.1167 10.0183 12.0071 10.0183 12.5563 10.5674C13.1055 11.1166 13.1055 12.007 12.5563 12.5562C12.0071 13.1053 11.1167 13.1053 10.5676 12.5562Z" fill="#FFC700"/>
<path d="M47 17.5255V16.1654H56.4787V17.5255H52.5045V28.8269H50.9741V17.5255H47Z" fill="black"/>
<path d="M58.8406 28.8269V16.1654H66.468V17.5255H60.3711V21.8037H66.0731V23.1638H60.3711V27.4668H66.5668V28.8269H58.8406Z" fill="black"/>
<path d="M78.6805 16.1654V28.8269H77.1501V17.5255H70.7816V28.8269H69.2511V16.1654H78.6805Z" fill="black"/>
<path d="M80.6814 28.8269V27.4173H81.0517C81.5783 27.4173 81.9876 27.2483 82.2797 26.9104C82.5718 26.5724 82.7816 26.0263 82.9092 25.272C83.0408 24.5178 83.1293 23.5183 83.1745 22.2736L83.3967 16.1654H91.0981V28.8269H89.5677V17.5255H84.853L84.6555 22.5703C84.6062 23.8975 84.4848 25.0268 84.2915 25.9583C84.0981 26.8897 83.7587 27.6007 83.2732 28.0912C82.7878 28.5817 82.0802 28.8269 81.1504 28.8269H80.6814Z" fill="black"/>
<path d="M95.2913 21.4822H98.8952C99.8003 21.4822 100.563 21.6306 101.185 21.9274C101.81 22.2241 102.283 22.6425 102.604 23.1824C102.929 23.7223 103.091 24.3591 103.091 25.0927C103.091 25.8264 102.929 26.4735 102.604 27.034C102.283 27.5945 101.81 28.0335 101.185 28.3509C100.563 28.6682 99.8003 28.8269 98.8952 28.8269H94.1558V16.1654H95.6862V27.4915H98.8952C99.4711 27.4915 99.9586 27.3761 100.358 27.1453C100.761 26.9104 101.065 26.6095 101.271 26.2427C101.481 25.8717 101.586 25.4802 101.586 25.068C101.586 24.4621 101.353 23.9408 100.888 23.5039C100.424 23.0629 99.7591 22.8423 98.8952 22.8423H95.2913V21.4822ZM105.856 16.1654V28.8269H104.326V16.1654H105.856Z" fill="black"/>
<path d="M108.92 16.1654H110.426V26.1314H110.549L117.461 16.1654H118.942V28.8269H117.411V18.8856H117.288L110.401 28.8269H108.92V16.1654ZM115.14 13H116.498C116.498 13.6677 116.268 14.2138 115.807 14.6383C115.346 15.0629 114.721 15.2751 113.931 15.2751C113.153 15.2751 112.534 15.0629 112.073 14.6383C111.617 14.2138 111.388 13.6677 111.388 13H112.746C112.746 13.3215 112.834 13.6038 113.011 13.847C113.192 14.0902 113.499 14.2117 113.931 14.2117C114.363 14.2117 114.671 14.0902 114.857 13.847C115.046 13.6038 115.14 13.3215 115.14 13Z" fill="black"/>
<path d="M136.346 16.1654V28.8269H134.815V17.5255H128.447V28.8269H126.916V16.1654H136.346Z" fill="black"/>
<path d="M150.096 22.4961C150.096 23.8315 149.855 24.9856 149.374 25.9583C148.893 26.931 148.232 27.6811 147.393 28.2087C146.554 28.7362 145.595 29 144.518 29C143.44 29 142.481 28.7362 141.642 28.2087C140.803 27.6811 140.142 26.931 139.661 25.9583C139.18 24.9856 138.939 23.8315 138.939 22.4961C138.939 21.1607 139.18 20.0067 139.661 19.034C140.142 18.0613 140.803 17.3112 141.642 16.7836C142.481 16.2561 143.44 15.9923 144.518 15.9923C145.595 15.9923 146.554 16.2561 147.393 16.7836C148.232 17.3112 148.893 18.0613 149.374 19.034C149.855 20.0067 150.096 21.1607 150.096 22.4961ZM148.615 22.4961C148.615 21.3998 148.432 20.4745 148.066 19.7202C147.704 18.966 147.212 18.3952 146.591 18.0077C145.974 17.6203 145.283 17.4266 144.518 17.4266C143.752 17.4266 143.059 17.6203 142.438 18.0077C141.821 18.3952 141.329 18.966 140.963 19.7202C140.601 20.4745 140.42 21.3998 140.42 22.4961C140.42 23.5925 140.601 24.5178 140.963 25.272C141.329 26.0263 141.821 26.5971 142.438 26.9845C143.059 27.372 143.752 27.5657 144.518 27.5657C145.283 27.5657 145.974 27.372 146.591 26.9845C147.212 26.5971 147.704 26.0263 148.066 25.272C148.432 24.5178 148.615 23.5925 148.615 22.4961Z" fill="black"/>
<path d="M151.583 28.8269V27.4173H151.954C152.48 27.4173 152.89 27.2483 153.182 26.9104C153.474 26.5724 153.684 26.0263 153.811 25.272C153.943 24.5178 154.031 23.5183 154.076 22.2736L154.299 16.1654H162V28.8269H160.47V17.5255H155.755L155.557 22.5703C155.508 23.8975 155.387 25.0268 155.193 25.9583C155 26.8897 154.661 27.6007 154.175 28.0912C153.69 28.5817 152.982 28.8269 152.052 28.8269H151.583Z" fill="black"/>
</svg>
