<svg width="25" height="24" viewBox="0 0 25 24" fill="none" xmlns="http://www.w3.org/2000/svg">
<path d="M13.0767 2.99805C13.0853 2.99806 13.0945 2.99809 13.1043 2.99811L13.2105 2.99844C14.4432 3.00297 20.6909 3.04826 22.3754 3.50112C23.408 3.77809 24.2212 4.59432 24.4972 5.63042C24.6491 6.19966 24.755 6.95626 24.8288 7.73439L24.8431 7.89026C24.8547 8.0203 24.8655 8.15064 24.8754 8.2805L24.8869 8.43605C24.9855 9.80721 24.997 11.0903 24.9984 11.371L24.9985 11.4089C24.9985 11.412 24.9985 11.4171 24.9985 11.4171V11.4383C24.9985 11.4383 24.9985 11.4434 24.9985 11.4465L24.9984 11.4844C24.997 11.7757 24.9846 13.1466 24.8754 14.575L24.8631 14.731L24.85 14.8872C24.7757 15.7461 24.6643 16.5989 24.4972 17.225C24.2212 18.2611 23.408 19.0775 22.3754 19.3543C20.6347 19.8224 14.0216 19.8552 13.1043 19.8575L13.0337 19.8577C13.0279 19.8577 13.0228 19.8577 13.0184 19.8577L12.9896 19.8577C12.9896 19.8577 12.983 19.8577 12.9786 19.8577L12.8927 19.8575C12.4291 19.8564 10.5108 19.8474 8.50194 19.7784L8.2451 19.7693C8.20225 19.7677 8.15938 19.7661 8.11651 19.7645L7.85937 19.7543L7.60282 19.7434C5.93856 19.6704 4.35178 19.5506 3.62184 19.3543C2.5892 19.0775 1.77606 18.2611 1.50007 17.225C1.33287 16.5989 1.2214 15.7461 1.14709 14.8872L1.13399 14.731L1.12167 14.575C1.01636 13.1985 1.00107 11.8755 0.998847 11.5204L0.998582 11.4696C0.998564 11.465 0.998548 11.4608 0.998535 11.4569V11.3985C0.998548 11.3946 0.998564 11.3904 0.998582 11.3859L0.998847 11.335C1.00086 11.0134 1.01359 9.898 1.09421 8.66787L1.10464 8.51356C1.10644 8.48776 1.10827 8.46192 1.11013 8.43605L1.12167 8.2805C1.13161 8.15064 1.14235 8.0203 1.15395 7.89026L1.16829 7.73439C1.24213 6.95626 1.34807 6.19966 1.50007 5.63042C1.77606 4.59432 2.5892 3.77809 3.62184 3.50112C4.35178 3.30488 5.93856 3.18517 7.60282 3.11215L7.85937 3.10128L8.11651 3.09112C8.15938 3.08949 8.20225 3.08788 8.2451 3.0863L8.50194 3.07717C10.3826 3.01261 12.1839 3.00066 12.7865 2.99844L12.8927 2.99811C12.9026 2.99809 12.9118 2.99806 12.9203 2.99805H13.0767ZM10.5986 7.81484V15.0406L16.8337 11.4279L10.5986 7.81484Z" fill="#232020"/>
</svg>
